<?xml version="1.0" standalone="no"?>
<!DOCTYPE svg PUBLIC "-//W3C//DTD SVG 20010904//EN"
 "http://www.w3.org/TR/2001/REC-SVG-20010904/DTD/svg10.dtd">
<svg version="1.0" xmlns="http://www.w3.org/2000/svg"
 width="260.000000pt" height="260.000000pt" viewBox="0 0 260.000000 260.000000"
 preserveAspectRatio="xMidYMid meet">
<metadata>
Created by potrace 1.11, written by Peter Selinger 2001-2013
</metadata>
<g transform="translate(0.000000,260.000000) scale(0.100000,-0.100000)"
fill="#000000" stroke="none">
<path d="M1160 2545 c-8 -2 -49 -9 -90 -15 -236 -39 -479 -167 -660 -350 -235
-236 -362 -544 -362 -880 0 -340 124 -641 362 -880 243 -244 544 -370 885
-370 350 0 655 129 898 379 246 254 370 576 354 921 -16 335 -143 618 -383
850 -239 232 -541 352 -874 349 -63 -1 -122 -3 -130 -4z m335 -491 c372 -101
624 -469 576 -844 -34 -266 -191 -489 -426 -605 -132 -66 -195 -80 -355 -79
-120 0 -145 3 -220 28 -333 109 -550 403 -550 746 0 374 264 692 635 766 86
17 256 11 340 -12z"/>
<path d="M1205 1780 c-165 -33 -307 -153 -366 -309 -26 -70 -35 -197 -20 -273
56 -266 335 -441 596 -373 203 53 340 212 370 428 l6 47 -250 0 -251 0 0 245
0 245 -22 -1 c-13 -1 -41 -5 -63 -9z"/>
</g>
</svg>
